<?xml version="1.0" encoding="UTF-8"?>
<!-- Created with Inkscape (http://www.inkscape.org/) -->
<svg width="26.727mm" height="26.827mm" version="1.1" viewBox="0 0 26.727 26.827" xmlns="http://www.w3.org/2000/svg" xmlns:xlink="http://www.w3.org/1999/xlink">
 <g transform="translate(-111.05 -105.85)">
  <g transform="matrix(.26458 0 0 .26458 95.555 99.499)">
   <path transform="matrix(2.1103 0 0 2.1103 1186.6 -733.09)" d="m-501.65 404.08c-18.267 8.36-34.641-3.28-32.747-23.28 1.8937-20 20.161-28.36 36.535-16.72 16.374 11.64 14.48 31.64-3.7874 40z" fill="#f2f2f2" style="paint-order:stroke fill markers"/>
   <path transform="matrix(.77334 0 0 .77334 502.05 -215.65)" d="m-501.65 404.08c-18.267 8.36-34.641-3.28-32.747-23.28 1.8937-20 20.161-28.36 36.535-16.72 16.374 11.64 14.48 31.64-3.7874 40z" fill="#bf8e8a" opacity=".645" style="paint-order:stroke fill markers"/>
   <path id="path258990" d="m141.23 79.061a33.9 33.9 0 0 1-33.633 33.899 33.9 33.9 0 0 1-34.163-33.366 33.9 33.9 0 0 1 33.096-34.424 33.9 33.9 0 0 1 34.683 32.824" fill="none" style="paint-order:stroke fill markers"/>
   <text transform="matrix(-.90807 -.1904 .1904 -.90807 190.12 176.21)" fill="#1a1a1a" font-family="'Libre Baskerville'" font-size="14.07px" letter-spacing="0px" opacity=".99" stroke-width="1.1725" word-spacing="0px" style="font-variant-caps:small-caps;font-variant-east-asian:normal;font-variant-ligatures:normal;font-variant-numeric:normal;line-height:1.25;white-space:pre" xml:space="preserve"><textPath stroke-width="1.1725" xlink:href="#path258990"><tspan font-family="'Averia Serif Libre'" font-size="14.07px" font-weight="500" stroke-width="1.1725" style="font-variant-caps:normal;font-variant-east-asian:normal;font-variant-ligatures:normal;font-variant-numeric:normal"> GÎTE DU LAC </tspan></textPath></text>
   <path transform="matrix(.93492 0 0 .93492 -22.337 6.1269)" d="m139.34 78.906c1.9682 2.4578 6.1272-2.6121 6.2749 0.53322 0.14764 3.1453-4.468-1.5127-6.1973 1.1187s4.3776 5.0202 1.4319 6.1325 0.058-4.7168-2.979-5.5483c-3.037-0.83152-3.4217 5.7147-5.3899 3.2569-1.9682-2.4578 4.5038-1.4024 4.3562-4.5477s-6.4924-1.4883-4.763-4.1197c1.7293-2.6314 2.7256 3.85 5.6713 2.7377 2.9457-1.1124-0.5908-6.6345 2.4462-5.803 3.037 0.83152-2.8194 3.7819-0.85115 6.2397z" fill="#fff" style="paint-order:stroke fill markers"/>
  </g>
 </g>
</svg>
