<?xml version="1.0" encoding="UTF-8"?>
<!-- Created with Inkscape (http://www.inkscape.org/) -->
<svg width="28.922mm" height="29.318mm" version="1.1" viewBox="0 0 28.922 29.318" xmlns="http://www.w3.org/2000/svg">
 <g transform="translate(-71.599 -105.08)">
  <g transform="matrix(.26458 0 0 .26458 -134.32 -21.902)">
   <path d="m887.58 535.32a54.656 55.403 0 0 1-54.226 55.401 54.656 55.403 0 0 1-55.079-54.53 54.656 55.403 0 0 1 53.359-56.259 54.656 55.403 0 0 1 55.919 53.645" fill="#f2f2f2" style="paint-order:stroke fill markers"/>
   <path d="m833.15 537.47c-5.4126-2.4373-11.479 9.1402-14.312 3.924-2.7639-5.0885 10.744-0.83469 13.122-6.1148 2.4372-5.4126-9.1403-11.479-3.924-14.312 5.0884-2.764 0.83463 10.744 6.1147 13.122 5.4126 2.4373 11.479-9.1402 14.312-3.924 2.7639 5.0885-10.744 0.83469-13.122 6.1148-2.4373 5.4126 9.1401 11.479 3.924 14.312-5.0886 2.764-0.83476-10.744-6.1148-13.122zm45.814-8.9947 0.86778-0.0716 0.26162 3.168-0.86779 0.0717zm-4.9106-8.1847 6.8842-1.9656 1.237 4.3325-0.87712 0.25044-0.92212-3.2294-1.9935 0.56921 0.78172 2.7377-0.83726 0.23906-0.78173-2.7377-2.2991 0.65649 0.96004 3.3623-0.87712 0.25043zm-3.2867-7.3858 6.4341-3.1398 0.50911 1.0434-2.6431 4.2272-1.015 1.4181 0.0239 0.0496q0.46614-0.27366 1.0133-0.60219 0.55951-0.33455 1.0813-0.58914l3.0183-1.4729 0.46661 0.95642-6.434 3.1398-0.50313-1.0309 2.6371-4.2396 1.015-1.4181-0.0239-0.0496q-0.49115 0.28577-1.0258 0.6082-0.52225 0.31639-1.0439 0.57096l-3.0432 1.4851zm-4.1498-5.9266 5.756-4.2572 1.4711 1.989q0.3534 0.47781 0.56044 0.9436 0.2262 0.46867 0.23996 0.90553 0.0216 0.44794-0.17712 0.85295-0.1989 0.40503-0.66565 0.75021-0.6556 0.48489-1.3491 0.43052-0.67401-0.0515-1.2846-0.52825l-1.2882 3.3251-0.73149-0.98898 1.2511-3.1429-0.78904-1.0668-2.3112 1.7095zm3.6601-1.2803 0.71507 0.96672q1.0602 1.4334 2.1048 0.66087 0.55555-0.41092 0.49835-0.95311-0.049-0.53105-0.56668-1.2311l-0.70682-0.95563zm-4.591-5.2998-0.9506 0.50238 1.5462 1.5025 0.47486-0.9647q0.2754-0.56106 0.55136-1.083 0.28567-0.53188 0.56106-1.093l-0.0395-0.0385q-0.56261 0.3013-1.0765 0.59212-0.51378 0.29081-1.0668 0.5822zm-4.4706 1.0904 6.8229-3.3526 0.93181 0.90536-3.1456 6.926-0.87233-0.84758 0.93051-1.9095-1.9527-1.8975-1.8821 0.98485zm-7.3318-4.967 4.9271-7.6109 1.1603 0.75111-1.167 5.0071q-0.11606 0.48456-0.25145 0.97325-0.11606 0.4846-0.23229 0.96922l0.0468 0.0302q0.39459-0.30435 0.76595-0.62372 0.39051-0.32343 0.78508-0.62776l4.0675-3.1294 1.1719 0.75859-4.9272 7.6109-0.90501-0.58588 2.7115-4.1883q0.33043-0.51046 0.77492-1.0953 0.44447-0.58488 0.80985-1.0728l-0.0468-0.0302-1.7225 1.3381-3.9923 3.0133-0.63813-0.41308 1.115-4.876 0.51583-2.1193-0.0468-0.0302q-0.29559 0.53301-0.65894 1.1704-0.35162 0.64496-0.68216 1.1554l-2.7114 4.1883zm-3.4197-4.7162 0.34156-0.80092 2.924 1.2472-0.34155 0.80088zm-6.8159 1.0563 1.9281-6.8947 4.3392 1.2135-0.24558 0.87844-3.2344-0.90452-0.5584 1.9965 2.7419 0.76686-0.23458 0.83854-2.7418-0.76681-0.64397 2.3027 3.3675 0.94177-0.24569 0.87845zm-4.9868-0.77506 0.72274-6.1634-2.2511-0.26404 0.11129-0.94717 5.6417 0.66167-0.11129 0.94715-2.2513-0.26402-0.72285 6.1634zm-6.6585 8e-3q-0.60711 0.0332-1.1406-0.10359-0.51893-0.12388-0.92571-0.47531-0.39303-0.35219-0.64638-0.93349-0.24019-0.59589-0.28854-1.4791l-0.22822-4.1677 1.1453-0.0628 0.22906 4.1815q0.0335 0.62102 0.18084 1.0283 0.14684 0.40719 0.38128 0.64351 0.24821 0.23554 0.55793 0.32932 0.32339 0.0932 0.69605 0.0728 0.37258-0.0204 0.6702-0.14746 0.31128-0.12774 0.51857-0.38823 0.22092-0.26128 0.32254-0.68208 0.11483-0.42157 0.0813-1.0426l-0.22905-4.1815 1.0903-0.0596 0.22823 4.1677q0.049 0.88321-0.12542 1.5018-0.17449 0.60475-0.5267 0.99779-0.35221 0.393-0.86826 0.57354-0.50158 0.19356-1.1226 0.22752zm-8.6919-2.8031-0.0946 1.0711 2.1011-0.48369-0.55267-0.92229q-0.32182-0.53575-0.6106-1.0507-0.29189-0.5285-0.6137-1.0642l-0.0538 0.0125q-0.0528 0.63605-0.0863 1.2255-0.0347 0.58943-0.0898 1.212zm-1.5096 4.347 0.88563-7.5504 1.2661-0.29149 4.1113 6.4001-1.1853 0.27287-1.0991-1.8176-2.6534 0.61087-0.19375 2.1152zm-6.4957 2.6584-2.7958-6.5908 1.056-0.44803 1.1388 2.6847 3.1554-1.3385-1.1387-2.6847 1.056-0.44799 2.7958 6.5908-1.056 0.448-1.2683-2.9901-3.1555 1.3386 1.2685 2.99zm-7.7714 5.1616-4.2967-5.7265 3.604-2.7042 0.54739 0.72966-2.6864 2.0156 1.2443 1.6583 2.2773-1.7088 0.52251 0.69647-2.2774 1.7087 1.435 1.9126 2.797-2.0986 0.5474 0.72964zm-5.4573 5.3898-5.1985-4.9226 1.359-1.4351q1.226-1.2946 2.5435-1.3793 1.3169-0.10432 2.6016 1.1121 1.2946 1.2259 1.2917 2.5556 0 1.3297-1.2002 2.5941zm0.13643-1.4507 0.58916-0.62219q0.88382-0.93332 0.81023-1.8405-0.0743-0.9268-1.0476-1.8486-0.91326-0.86479-1.8427-0.88837-0.91997-0.0335-1.8037 0.8997l-0.58928 0.62219zm-5.2677 9.2381-6.2017-3.577 2.2512-3.903 0.79012 0.45574-1.678 2.9093 1.7959 1.0358 1.4225-2.4663 0.75422 0.43508-1.4225 2.4663 2.0711 1.1946 1.7472-3.029 0.7901 0.45577zm-1.9887 4.6383-5.7918-2.2282-0.81393 2.1155-0.89004-0.3424 2.0397-5.3016 0.89005 0.34242-0.81382 2.1155 5.7918 2.2282zm-1.4558 4.8274-6.9437-1.7438 0.27944-1.1126 6.9437 1.7438zm-8.5371-0.61921-1.1612-1.788 0.28952-1.1528 1.8682-1.0271 0.22739 0.57011-1.617 1.1614-0.0135 0.0534 0.87632 1.7876zm7.8499 5.5215q-0.091 0.89384-0.48311 1.6182-0.39135 0.71057-1.0369 1.1871-0.65931 0.47512-1.5562 0.69005-0.91062 0.21354-2.0107 0.10237-1.0863-0.10983-1.922-0.49995-0.83435-0.40387-1.3838-1.015-0.54944-0.61122-0.78924-1.3995-0.25215-0.80342-0.16179-1.6972 0.0472-0.46753 0.18246-0.84282 0.13658-0.38907 0.33353-0.68866 0.18465-0.31471 0.41593-0.54138 0.21895-0.2418 0.44465-0.41347l0.67868 0.70761q-0.39236 0.30763-0.68574 0.7364-0.29341 0.42875-0.36291 1.1163-0.0696 0.68754 0.13615 1.264 0.19189 0.57508 0.63424 1.0088 0.42857 0.4323 1.0802 0.72041 0.65284 0.27441 1.4917 0.35921 0.85257 0.0863 1.5596-0.0367 0.69461-0.13811 1.2134-0.46073 0.52023-0.33638 0.83714-0.86003 0.31823-0.53736 0.39194-1.2662 0.049-0.4813-0.0455-0.92147-0.10652-0.45535-0.32649-0.75535l-2.3514-0.23774-0.19328 1.9114-0.94881-0.0959 0.29895-2.9565 3.7952 0.38371q0.4093 0.48592 0.63956 1.2316 0.2165 0.74423 0.1247 1.6518zm-4.923 13.787-0.86778 0.0717-0.2616-3.1681 0.86777-0.0716zm4.9106 8.1847-6.8842 1.9656-1.2371-4.3325 0.87722-0.25048 0.92199 3.2294 1.9936-0.56914-0.78176-2.7377 0.83729-0.23909 0.78159 2.7378 2.2992-0.65648-0.96005-3.3624 0.87713-0.25043zm3.2867 7.3858-6.4341 3.1398-0.50912-1.0434 2.6431-4.2272 1.015-1.4181-0.0239-0.0499q-0.46627 0.27371-1.0133 0.60214-0.55961 0.33465-1.0813 0.58921l-3.0183 1.4729-0.46676-0.95644 6.4341-3.1398 0.50312 1.031-2.6371 4.2396-1.015 1.4181 0.0239 0.05q0.49104-0.28585 1.0258-0.60823 0.52227-0.31642 1.044-0.57102l3.0432-1.485zm4.1498 5.9266-5.756 4.2573-1.4711-1.989q-0.35341-0.47784-0.56045-0.94358-0.22631-0.46871-0.23995-0.90553-0.0216-0.44799 0.17712-0.85296 0.19891-0.40506 0.66564-0.75022 0.6556-0.48487 1.349-0.43049 0.67414 0.0513 1.2847 0.52821l1.2882-3.3251 0.73146 0.989-1.2511 3.1429 0.78892 1.0667 2.3113-1.7094zm-3.6601 1.2803-0.71507-0.96672q-1.0602-1.4334-2.1048-0.66088-0.55554 0.41092-0.49832 0.95309 0.049 0.53106 0.56666 1.2311l0.70682 0.95564zm4.591 5.2998 0.95061-0.50236-1.5462-1.5026-0.4749 0.96468q-0.27537 0.56101-0.55135 1.083-0.28566 0.53187-0.56104 1.093l0.0395 0.0387q0.5626-0.30129 1.0765-0.59212 0.51377-0.29082 1.0667-0.58218zm4.4706-1.0904-6.823 3.3526-0.9318-0.90546 3.1456-6.926 0.87222 0.84757-0.93038 1.9096 1.9527 1.8974 1.882-0.98485zm7.3318 4.967-4.9271 7.6109-1.1603-0.75111 1.167-5.0071q0.11605-0.48461 0.25145-0.97327 0.11605-0.48459 0.23229-0.96921l-0.0468-0.03q-0.39457 0.30433-0.76594 0.62373-0.3905 0.32344-0.78508 0.6278l-4.0675 3.1294-1.1719-0.75859 4.9272-7.611 0.90488 0.58584-2.7114 4.1883q-0.33056 0.51049-0.77492 1.0954-0.44459 0.5849-0.80985 1.0728l0.0468 0.03 1.7225-1.3381 3.9923-3.0133 0.63812 0.41306-1.115 4.8761-0.51594 2.1192 0.0468 0.03q0.29571-0.53299 0.65894-1.1704 0.35174-0.64497 0.68217-1.1555l2.7115-4.1883zm3.4197 4.7162-0.34157 0.80092-2.9241-1.2472 0.34169-0.80092zm6.8159-1.0563-1.9283 6.8947-4.3391-1.2135 0.24571-0.87849 3.2344 0.90458 0.55841-1.9966-2.7419-0.76678 0.23445-0.8386 2.7419 0.76684 0.64399-2.3027-3.3675-0.9418 0.2457-0.87846zm4.9868 0.77503-0.72285 6.1634 2.2513 0.26402-0.11129 0.94724-5.6417-0.66169 0.1113-0.9472 2.2511 0.26399 0.72286-6.1634zm6.6584-8e-3q0.60723-0.0334 1.1408 0.10359 0.51892 0.12374 0.9257 0.4753 0.39303 0.35218 0.64639 0.93351 0.24018 0.5959 0.28853 1.4791l0.22824 4.1676-1.1454 0.0623-0.22894-4.1815q-0.0335-0.621-0.18096-1.0282-0.14683-0.4072-0.38117-0.64353-0.24821-0.23548-0.55793-0.32936-0.32336-0.093-0.69604-0.0727-0.37256 0.0199-0.67021 0.14743-0.31128 0.12775-0.51856 0.38821-0.22091 0.26127-0.32252 0.68211-0.11483 0.42159-0.0813 1.0426l0.22906 4.1816-1.0903 0.0598-0.22821-4.1677q-0.049-0.88321 0.1254-1.5017 0.1745-0.60477 0.52672-0.99778 0.35221-0.393 0.86826-0.57353 0.50155-0.1936 1.1226-0.22761zm8.692 2.8031 0.0946-1.071-2.101 0.48365 0.55265 0.92229q0.32182 0.53575 0.61061 1.0508 0.29189 0.52846 0.6137 1.0642l0.0538-0.0124q0.0515-0.63604 0.0861-1.2255 0.0348-0.58943 0.0898-1.212zm1.5096-4.347-0.88561 7.5504-1.2661 0.29146-4.1113-6.4001 1.1852-0.27287 1.0992 1.8176 2.6534-0.6108 0.19377-2.1153zm6.4956-2.6584 2.7959 6.5908-1.0562 0.44802-1.1387-2.6847-3.1555 1.3386 1.1388 2.6847-1.056 0.44792-2.7958-6.5908 1.056-0.44794 1.2684 2.99 3.1555-1.3386-1.2685-2.99zm7.7715-5.1616 4.2967 5.7265-3.604 2.7042-0.54741-0.72966 2.6864-2.0156-1.2443-1.6583-2.2774 1.7088-0.52263-0.69649 2.2774-1.7087-1.435-1.9126-2.797 2.0986-0.5474-0.72956zm5.4573-5.3898 5.1984 4.9226-1.359 1.4351q-1.2259 1.2946-2.5434 1.3793-1.3169 0.10432-2.6016-1.1121-1.2946-1.2259-1.2917-2.5556 0-1.3296 1.2002-2.5942zm-0.13644 1.4506-0.58917 0.62217q-0.88382 0.93335-0.81022 1.8406 0.0742 0.92675 1.0475 1.8486 0.91328 0.86476 1.8427 0.88833 0.91983 0.0334 1.8036-0.89971l0.58918-0.62221zm5.2677-9.2381 6.2016 3.577-2.2511 3.903-0.7901-0.45573 1.678-2.9093-1.7959-1.0358-1.4225 2.4663-0.75434-0.43506 1.4226-2.4663-2.0713-1.1946-1.747 3.029-0.79024-0.45579zm1.9887-4.6383 5.7918 2.2283 0.8138-2.1155 0.89017 0.34244-2.0397 5.3016-0.89004-0.34241 0.8138-2.1155-5.7918-2.2282zm1.4558-4.8272 6.9436 1.7438-0.27933 1.1126-6.9437-1.7439zm8.5371 0.61923 1.1612 1.7879-0.28949 1.1528-1.8682 1.0271-0.22738-0.57014 1.617-1.1614 0.0133-0.0532-0.87628-1.7876zm-7.8499-5.5216q0.091-0.89382 0.48314-1.6181 0.39134-0.71058 1.0369-1.1871 0.65919-0.47511 1.5561-0.69004 0.91074-0.21353 2.0108-0.10236 1.0863 0.10983 1.922 0.49996 0.83427 0.40383 1.3837 1.0151 0.54944 0.6112 0.78927 1.3995 0.25216 0.80341 0.16179 1.6972-0.0478 0.46753-0.18237 0.8428-0.13668 0.38904-0.33367 0.68865-0.18467 0.31472-0.41587 0.5414-0.2189 0.24179-0.44473 0.41344l-0.67858-0.70761q0.39231-0.30764 0.68577-0.73637 0.29333-0.42878 0.36285-1.1163 0.0694-0.68753-0.13607-1.264-0.19197-0.57507-0.63429-1.0087-0.42857-0.43234-1.0802-0.72045-0.65296-0.27437-1.4917-0.35918-0.85259-0.0863-1.5596 0.0367-0.69461 0.13814-1.2135 0.46075-0.52012 0.33638-0.83703 0.85999-0.31822 0.53738-0.39194 1.2662-0.049 0.48127 0.0455 0.92149 0.10651 0.45528 0.32648 0.75533l2.3514 0.23774 0.19316-1.9114 0.94892 0.096-0.29895 2.9564-3.7952-0.38371q-0.4093-0.48592-0.63956-1.2316-0.21649-0.74422-0.12483-1.6518z" stroke-width="0" style="paint-order:stroke fill markers"/>
  </g>
 </g>
</svg>
